<svg xmlns="http://www.w3.org/2000/svg" width="42.289" height="41.247" viewBox="0 0 42.289 41.247"><path d="M21.145,0a21.146,21.146,0,0,0-6.684,41.208c1.057.194,1.443-.459,1.443-1.017,0-.5-.019-2.171-.03-3.936-5.88,1.278-7.123-2.493-7.123-2.493A5.606,5.606,0,0,0,6.4,30.669c-1.922-1.311.146-1.285.146-1.285A4.438,4.438,0,0,1,9.79,31.562c1.887,3.232,4.951,2.3,6.153,1.755a4.52,4.52,0,0,1,1.342-2.824c-4.694-.534-9.631-2.349-9.631-10.451a8.186,8.186,0,0,1,2.175-5.675,7.616,7.616,0,0,1,.209-5.6s1.773-.568,5.815,2.168a20.017,20.017,0,0,1,10.585,0c4.034-2.739,5.81-2.168,5.81-2.168a7.585,7.585,0,0,1,.212,5.6,8.162,8.162,0,0,1,2.173,5.675c0,8.123-4.945,9.912-9.656,10.436a5.037,5.037,0,0,1,1.435,3.913c0,2.826-.028,5.105-.028,5.8,0,.563.385,1.221,1.456,1.014A21.148,21.148,0,0,0,21.145,0Z" transform="translate(0)" fill="#fff"></path></svg>