<svg xmlns="http://www.w3.org/2000/svg" width="42.141" height="34.247" viewBox="0 0 42.141 34.247"><path d="M45.715,14.38a17.2,17.2,0,0,1-4.966,1.361,8.661,8.661,0,0,0,3.8-4.784,17.307,17.307,0,0,1-5.49,2.1,8.653,8.653,0,0,0-14.731,7.885A24.548,24.548,0,0,1,6.508,11.909,8.657,8.657,0,0,0,9.184,23.452,8.621,8.621,0,0,1,5.268,22.37c0,.036,0,.073,0,.109A8.653,8.653,0,0,0,12.2,30.957a8.693,8.693,0,0,1-2.278.3A8.566,8.566,0,0,1,8.3,31.1a8.655,8.655,0,0,0,8.076,6,17.446,17.446,0,0,1-12.8,3.58,24.466,24.466,0,0,0,13.253,3.885c15.9,0,24.6-13.174,24.6-24.6q0-.562-.024-1.12A17.511,17.511,0,0,0,45.715,14.38Z" transform="translate(-3.574 -10.326)" fill="#fff"/></svg>